<?xml version="1.0" encoding="utf-8"?>
<svg viewBox="0 0 359.889 48.713" fill="#f5f5f5" xmlns="http://www.w3.org/2000/svg">
  <path d="M352.959 1h-.142a6.94 6.94 0 0 0-6.93 6.93v9.336H335v-1.474c0-3.834-3.119-6.953-6.953-6.953h-.095c-3.834 0-6.953 3.119-6.953 6.953v13.261c0 10.761 8.657 19.58 19.297 19.659h.147c10.722 0 19.445-8.723 19.445-19.444V7.93A6.94 6.94 0 0 0 352.959 1zm2.369 28.268c0 8.207-6.677 14.884-14.884 14.884h-.113c-8.145-.061-14.771-6.834-14.771-15.099V15.792c0-1.319 1.073-2.393 2.393-2.393h.095c1.319 0 2.393 1.073 2.393 2.393v3.754 7.712a2.28 2.28 0 1 0 4.561 0v-5.432h2.787v5.432a2.28 2.28 0 1 0 4.561 0v-5.432h3.538v5.432a2.28 2.28 0 1 0 4.561 0v-7.712V7.93c0-1.306 1.063-2.369 2.369-2.369h.142c1.306 0 2.369 1.063 2.369 2.369v21.339zM6.707 21.305c1.264-2.211 4.544-4.253 8.165-4.253v6.245c-5.297 0-7.825 1.555-7.825 6.853v12.174H0v-24.98h6.707v3.961zm23.911 21.506c-7.946 0-13.681-4.836-13.681-13 0-8.116 5.686-12.952 13.681-12.952 8.043 0 13.706 4.836 13.706 12.952 0 8.165-5.686 13-13.706 13zm-.073-5.565c4.058 0 6.828-2.965 6.828-7.436s-2.77-7.436-6.828-7.436c-3.912 0-6.658 2.965-6.658 7.436s2.746 7.436 6.658 7.436zm30.277 5.54c-7.849 0-13.39-5.224-13.39-12.977 0-7.776 5.54-12.952 13.39-12.952 6.318 0 11.056 3.28 12.271 9.185l-6.464.705c-.778-2.989-2.94-4.374-5.881-4.374-3.766 0-6.318 2.965-6.318 7.436 0 4.447 2.552 7.436 6.318 7.436 2.94 0 5.103-1.409 5.881-4.374l6.464.705c-1.215 5.905-6.075 9.21-12.271 9.21zm33.825-.462l-8.043-10.498h-1.458v10.498h-7.071V5h7.071v21.967h1.312l7.849-9.623h7.922l-9.841 11.591 10.765 13.39h-8.505zm20.874.486c-5.613 0-9.963-2.211-10.862-6.95l5.856-1.652c.753 2.673 2.649 3.718 5.006 3.718 1.725 0 3.596-.535 3.548-2.503-.024-2.6-3.961-2.819-7.922-4.228-2.989-1.045-5.856-2.649-5.856-6.853 0-5.127 4.253-7.484 9.793-7.484 4.86 0 8.918 1.847 9.89 6.61l-5.419 1.215c-.753-2.333-2.406-3.159-4.447-3.159-1.847 0-3.426.656-3.426 2.211 0 1.968 2.892 2.357 6.026 3.208 3.864 1.045 8.092 2.722 8.092 8.068 0 5.735-4.884 7.8-10.279 7.8zm26.949 0c-7.946 0-13.681-4.836-13.681-13 0-8.116 5.686-12.952 13.681-12.952 8.043 0 13.706 4.836 13.706 12.952 0 8.165-5.686 13-13.706 13zm-.073-5.565c4.058 0 6.828-2.965 6.828-7.436s-2.77-7.436-6.828-7.436c-3.912 0-6.658 2.965-6.658 7.436s2.746 7.436 6.658 7.436zm33.072-26.657c-2.309 0-5.37-.097-5.37 4.082v2.673h5.37v5.37h-5.37v19.61h-6.974v-19.61h-4.884v-5.37h4.884v-2.697c0-8.432 5.103-9.647 12.344-9.647v5.589zm13.269 31.736c-4.86 0-7.63-2.819-7.63-7.8v-11.81h-4.909v-5.37h1.579c2.649 0 4.107-1.021 4.107-4.763V9.277h6.318v8.068h5.152v5.37h-5.152v11.056c0 2.236 1.093 3.232 2.892 3.232h2.26v5.322h-4.617zm41.48-24.98h7.241l-8.748 25.005h-6.488l-5.783-16.5-5.832 16.5h-6.585l-8.578-25.005h7.217l5.152 16.256 5.905-16.256h5.37l5.881 16.208zm31.614 18.2c0 3.062.292 5.006.607 6.099v.68h-6.537l-.559-2.722c-1.871 2.26-5.103 3.208-8.019 3.208-3.937 0-7.776-1.75-7.776-6.95 0-5.176 3.864-6.925 9.088-8.068l4.107-.923c1.774-.413 2.406-1.021 2.406-2.041 0-2.454-2.236-3.135-4.204-3.135-2.527 0-4.447.996-4.884 3.815l-6.196-1.118c1.045-5.176 4.836-7.533 11.47-7.533 5.006 0 10.498 1.482 10.498 9.015v9.671zm-12.32 2.527c3.329 0 6.002-2.211 6.002-7.168l-5.929 1.677c-1.944.462-3.353 1.142-3.353 2.819 0 1.798 1.482 2.673 3.28 2.673zm25.831-16.767c1.264-2.211 4.544-4.253 8.165-4.253v6.245c-5.297 0-7.825 1.555-7.825 6.853v12.174h-7.047v-24.98h6.707v3.961zm35.77 8.165l-.073 1.677h-18.517c.292 4.155 3.062 6.148 6.391 6.148 2.503 0 4.447-1.166 5.395-3.378l6.415.948c-1.652 5.054-6.148 7.946-11.761 7.946-8.068 0-13.341-4.763-13.341-12.977s5.419-13.025 13.122-13.025c7.071 0 12.344 3.912 12.369 12.66zm-12.32-7.703c-3.183 0-5.395 1.482-6.075 4.811h11.47c-.364-3.183-2.527-4.811-5.395-4.811z"/>
</svg>